<svg xmlns="http://www.w3.org/2000/svg" version="1.1" xmlns:xlink="http://www.w3.org/1999/xlink" xmlns:svgjs="http://svgjs.dev/svgjs" width="1000" height="623" viewBox="0 0 1000 623"><g transform="matrix(1,0,0,1,-0.6060606060606233,0.2522267206477409)"><svg viewBox="0 0 396 247" data-background-color="#282634" preserveAspectRatio="xMidYMid meet" height="623" width="1000" xmlns="http://www.w3.org/2000/svg" xmlns:xlink="http://www.w3.org/1999/xlink"><g id="tight-bounds" transform="matrix(1,0,0,1,0.2400000000000091,-0.09999999999999432)"><svg viewBox="0 0 395.52 247.2" height="247.2" width="395.52"><g><svg></svg></g><g><svg viewBox="0 0 395.52 247.2" height="247.2" width="395.52"><g transform="matrix(1,0,0,1,75.54432,101.76505509348442)"><svg viewBox="0 0 244.43135999999998 43.669889813031155" height="43.669889813031155" width="244.43135999999998"><g><svg viewBox="0 0 244.43135999999998 43.669889813031155" height="43.669889813031155" width="244.43135999999998"><g><svg viewBox="0 0 244.43135999999998 43.669889813031155" height="43.669889813031155" width="244.43135999999998"><g><svg viewBox="0 0 244.43135999999998 43.669889813031155" height="43.669889813031155" width="244.43135999999998"><g id="textblocktransform"><svg viewBox="0 0 244.43135999999998 43.669889813031155" height="43.669889813031155" width="244.43135999999998" id="textblock"><g><svg viewBox="0 0 244.43135999999998 43.669889813031155" height="43.669889813031155" width="244.43135999999998"><g transform="matrix(1,0,0,1,0,0)"><svg width="244.43135999999998" viewBox="2.25 -36.040000915527344 258.510009765625 46.20000076293945" height="43.669889813031155" data-palette-color="#ff4057"><path d="M14.01-3.17L14.01-3.17Q15.63-3.17 16.99-3.85 18.36-4.52 19.24-5.69 20.12-6.86 20.24-8.35L20.24-8.35 24.56-8.35Q24.44-6.01 22.97-3.99 21.51-1.98 19.17-0.74 16.82 0.49 14.01 0.49L14.01 0.49Q10.03 0.49 7.42-1.33 4.81-3.15 3.53-6.15 2.25-9.16 2.25-12.7L2.25-12.7 2.25-13.72Q2.25-17.29 3.54-20.28 4.83-23.27 7.45-25.09 10.06-26.9 14.01-26.9L14.01-26.9Q17.11-26.9 19.45-25.65 21.78-24.39 23.11-22.23 24.44-20.07 24.56-17.33L24.56-17.33 20.24-17.33Q20.12-18.97 19.32-20.31 18.53-21.66 17.18-22.45 15.82-23.24 14.01-23.24L14.01-23.24Q11.25-23.24 9.68-21.83 8.11-20.41 7.46-18.23 6.81-16.04 6.81-13.72L6.81-13.72 6.81-12.7Q6.81-10.38 7.45-8.18 8.08-5.98 9.66-4.58 11.23-3.17 14.01-3.17ZM34.57-26.42L34.57 0 30 0 30-26.42 34.57-26.42ZM29.66-33.45L29.66-33.45Q29.66-34.52 30.33-35.28 31-36.04 32.32-36.04L32.32-36.04Q33.64-36.04 34.34-35.28 35.03-34.52 35.03-33.45L35.03-33.45Q35.03-32.4 34.34-31.65 33.64-30.91 32.32-30.91L32.32-30.91Q31-30.91 30.33-31.65 29.66-32.4 29.66-33.45ZM46.33-20.78L46.33 0 41.77 0 41.77-26.42 46.09-26.42 46.33-20.78ZM45.26-14.23L43.35-14.31Q43.4-17.92 44.75-20.76 46.09-23.61 48.49-25.26 50.9-26.9 54.1-26.9L54.1-26.9Q56.71-26.9 58.6-25.94 60.49-24.98 61.53-22.88 62.57-20.78 62.57-17.31L62.57-17.31 62.57 0 58 0 58-17.36Q58-19.43 57.4-20.7 56.81-21.97 55.63-22.55 54.46-23.12 52.75-23.12L52.75-23.12Q51.07-23.12 49.7-22.41 48.33-21.7 47.33-20.46 46.33-19.21 45.8-17.61 45.26-16.02 45.26-14.23L45.26-14.23ZM80.36 0.49L80.36 0.49Q76.68 0.49 73.95-1.16 71.23-2.81 69.73-5.69 68.23-8.57 68.23-12.28L68.23-12.28 68.23-13.33Q68.23-17.63 69.88-20.67 71.53-23.71 74.17-25.31 76.82-26.9 79.78-26.9L79.78-26.9Q83.59-26.9 85.99-25.21 88.4-23.51 89.53-20.59 90.67-17.68 90.67-13.99L90.67-13.99 90.67-11.96 70.94-11.96 70.94-15.63 86.1-15.63 86.1-15.97Q86-17.72 85.39-19.4 84.78-21.07 83.44-22.16 82.1-23.24 79.78-23.24L79.78-23.24Q77.73-23.24 76.15-22.08 74.58-20.92 73.69-18.71 72.8-16.5 72.8-13.33L72.8-13.33 72.8-12.28Q72.8-9.77 73.72-7.7 74.65-5.64 76.41-4.41 78.17-3.17 80.61-3.17L80.61-3.17Q83-3.17 84.66-4.15 86.32-5.13 87.57-6.76L87.57-6.76 90.32-4.61Q89.06-2.66 86.67-1.09 84.29 0.49 80.36 0.49ZM111.29-7.01L111.29-7.01Q111.29-7.98 110.87-8.83 110.44-9.67 109.15-10.36 107.85-11.06 105.24-11.6L105.24-11.6Q102.31-12.21 100.17-13.15 98.04-14.09 96.88-15.55 95.72-17.02 95.72-19.19L95.72-19.19Q95.72-21.29 96.93-23.03 98.13-24.78 100.34-25.84 102.55-26.9 105.51-26.9L105.51-26.9Q108.68-26.9 110.94-25.79 113.2-24.68 114.39-22.81 115.59-20.95 115.59-18.68L115.59-18.68 111.03-18.68Q111.03-20.31 109.6-21.78 108.17-23.24 105.51-23.24L105.51-23.24Q103.65-23.24 102.49-22.67 101.33-22.09 100.81-21.2 100.28-20.31 100.28-19.34L100.28-19.34Q100.28-18.36 100.77-17.64 101.26-16.92 102.57-16.36 103.87-15.8 106.36-15.23L106.36-15.23Q109.61-14.5 111.71-13.48 113.81-12.45 114.83-10.96 115.86-9.47 115.86-7.32L115.86-7.32Q115.86-5.03 114.59-3.26 113.32-1.49 111.03-0.5 108.73 0.49 105.63 0.49L105.63 0.49Q102.14 0.49 99.72-0.76 97.3-2 96.06-3.97 94.81-5.93 94.81-8.13L94.81-8.13 99.38-8.13Q99.5-6.27 100.47-5.19 101.43-4.1 102.83-3.64 104.24-3.17 105.63-3.17L105.63-3.17Q107.49-3.17 108.74-3.67 110-4.17 110.65-5.04 111.29-5.91 111.29-7.01ZM132.31-3.17L132.31-3.17Q133.92-3.17 135.29-3.85 136.66-4.52 137.54-5.69 138.42-6.86 138.54-8.35L138.54-8.35 142.86-8.35Q142.74-6.01 141.27-3.99 139.81-1.98 137.46-0.74 135.12 0.49 132.31 0.49L132.31 0.49Q128.33 0.49 125.72-1.33 123.11-3.15 121.83-6.15 120.54-9.16 120.54-12.7L120.54-12.7 120.54-13.72Q120.54-17.29 121.84-20.28 123.13-23.27 125.74-25.09 128.36-26.9 132.31-26.9L132.31-26.9Q135.41-26.9 137.74-25.65 140.08-24.39 141.41-22.23 142.74-20.07 142.86-17.33L142.86-17.33 138.54-17.33Q138.42-18.97 137.62-20.31 136.83-21.66 135.47-22.45 134.12-23.24 132.31-23.24L132.31-23.24Q129.55-23.24 127.98-21.83 126.4-20.41 125.76-18.23 125.11-16.04 125.11-13.72L125.11-13.72 125.11-12.7Q125.11-10.38 125.74-8.18 126.38-5.98 127.95-4.58 129.53-3.17 132.31-3.17ZM152.48-22.27L152.48 0 147.91 0 147.91-26.42 152.35-26.42 152.48-22.27ZM160.7-26.56L160.7-22.39Q160.12-22.51 159.62-22.55 159.12-22.58 158.48-22.58L158.48-22.58Q156.41-22.58 154.98-21.73 153.55-20.87 152.77-19.37 151.99-17.87 151.79-15.94L151.79-15.94 150.5-15.21Q150.5-18.41 151.35-21.06 152.21-23.71 154.03-25.31 155.84-26.9 158.7-26.9L158.7-26.9Q159.16-26.9 159.81-26.79 160.46-26.68 160.7-26.56L160.7-26.56ZM169.81-26.42L169.81 0 165.24 0 165.24-26.42 169.81-26.42ZM164.9-33.45L164.9-33.45Q164.9-34.52 165.57-35.28 166.24-36.04 167.56-36.04L167.56-36.04Q168.88-36.04 169.57-35.28 170.27-34.52 170.27-33.45L170.27-33.45Q170.27-32.4 169.57-31.65 168.88-30.91 167.56-30.91L167.56-30.91Q166.24-30.91 165.57-31.65 164.9-32.4 164.9-33.45ZM181.57-21.34L181.57 10.16 177.01 10.16 177.01-26.42 181.16-26.42 181.57-21.34ZM199.35-13.43L199.35-12.92Q199.35-9.06 198.15-6.03 196.95-3 194.67-1.26 192.39 0.49 189.12 0.49L189.12 0.49Q185.72 0.49 183.43-0.98 181.13-2.44 179.84-5.14 178.54-7.84 178.15-11.52L178.15-11.52 178.15-14.36Q178.54-18.24 179.85-21.04 181.16-23.85 183.44-25.38 185.72-26.9 189.04-26.9L189.04-26.9Q192.36-26.9 194.66-25.22 196.95-23.54 198.15-20.5 199.35-17.46 199.35-13.43L199.35-13.43ZM194.78-12.92L194.78-13.43Q194.78-16.06 194.04-18.27 193.29-20.48 191.72-21.8 190.14-23.12 187.68-23.12L187.68-23.12Q185.99-23.12 184.75-22.53 183.5-21.95 182.62-20.96 181.74-19.97 181.19-18.71 180.64-17.46 180.38-16.11L180.38-16.11 180.38-9.74Q180.86-8.03 181.73-6.53 182.6-5.03 184.05-4.1 185.5-3.17 187.72-3.17L187.72-3.17Q190.17-3.17 191.73-4.52 193.29-5.86 194.04-8.07 194.78-10.28 194.78-12.92L194.78-12.92ZM216.19-26.42L216.19-22.97 201.88-22.97 201.88-26.42 216.19-26.42ZM206.69-32.84L211.26-32.84 211.26-6.54Q211.26-5.18 211.67-4.49 212.09-3.81 212.75-3.59 213.41-3.37 214.16-3.37L214.16-3.37Q214.72-3.37 215.35-3.47 215.97-3.56 216.26-3.64L216.26-3.64 216.29 0Q215.75 0.17 214.88 0.33 214.02 0.49 212.79 0.49L212.79 0.49Q211.13 0.49 209.74-0.17 208.35-0.83 207.52-2.38 206.69-3.93 206.69-6.57L206.69-6.57 206.69-32.84ZM232.42 0.49L232.42 0.49Q228.73 0.49 226.01-1.16 223.29-2.81 221.79-5.69 220.29-8.57 220.29-12.28L220.29-12.28 220.29-13.33Q220.29-17.63 221.94-20.67 223.58-23.71 226.23-25.31 228.88-26.9 231.84-26.9L231.84-26.9Q235.64-26.9 238.05-25.21 240.45-23.51 241.59-20.59 242.72-17.68 242.72-13.99L242.72-13.99 242.72-11.96 223-11.96 223-15.63 238.16-15.63 238.16-15.97Q238.06-17.72 237.45-19.4 236.84-21.07 235.5-22.16 234.15-23.24 231.84-23.24L231.84-23.24Q229.78-23.24 228.21-22.08 226.64-20.92 225.74-18.71 224.85-16.5 224.85-13.33L224.85-13.33 224.85-12.28Q224.85-9.77 225.78-7.7 226.71-5.64 228.47-4.41 230.22-3.17 232.67-3.17L232.67-3.17Q235.06-3.17 236.72-4.15 238.38-5.13 239.62-6.76L239.62-6.76 242.38-4.61Q241.11-2.66 238.73-1.09 236.35 0.49 232.42 0.49ZM252.54-22.27L252.54 0 247.97 0 247.97-26.42 252.41-26.42 252.54-22.27ZM260.76-26.56L260.76-22.39Q260.18-22.51 259.68-22.55 259.18-22.58 258.54-22.58L258.54-22.58Q256.47-22.58 255.04-21.73 253.61-20.87 252.83-19.37 252.05-17.87 251.85-15.94L251.85-15.94 250.56-15.21Q250.56-18.41 251.41-21.06 252.27-23.71 254.09-25.31 255.91-26.9 258.76-26.9L258.76-26.9Q259.23-26.9 259.87-26.79 260.52-26.68 260.76-26.56L260.76-26.56Z" opacity="1" transform="matrix(1,0,0,1,0,0)" fill="#ff4057" class="wordmark-text-0" data-fill-palette-color="primary" id="text-0"></path></svg></g></svg></g></svg></g></svg></g></svg></g></svg></g></svg></g><path d="M209.138 95.765L209.138 34.097 388.144 34.097 388.144 213.103 209.138 213.103 209.138 151.435 213.076 151.435 213.076 209.165 384.206 209.165 384.206 38.035 213.076 38.035 213.076 95.765Z" fill="#ff4057" stroke="transparent" data-fill-palette-color="primary"></path></svg></g><defs></defs></svg><rect width="395.52" height="247.2" fill="none" stroke="none" visibility="hidden"></rect></g></svg></g></svg>